custom-analysis
version=1
nRows=12
nColumns=42
inDegrees=no

This file contains tibia displacement and acting force.

Units are S.I. units (seconds, meters, Newtons, ...)
Angles are in degrees.

endheader
time	APT	SIT	knee_angle	aACL_R_force	pACL_R_force	aPCL_R_force	pPCL_R_force	aMCL_R_force	mMCL_R_force	pMCL_R_force	aLCL_R_force	mLCL_R_force	pLCL_R_force	aACL_R_length	pACL_R_length	aPCL_R_length	pPCL_R_length	aMCL_R_length	mMCL_R_length	pMCL_R_length	aLCL_R_length	mLCL_R_length	pLCL_R_length	aACL_R_strain	pACL_R_strain	aPCL_R_strain	pPCL_R_strain	aMCL_R_strain	mMCL_R_strain	pMCL_R_strain	aLCL_R_strain	mLCL_R_strain	pLCL_R_strain	femur_lat_meniscii_force_r	femur_lat_meniscii_torque_r	femur_med_meniscii_force_r	femur_med_meniscii_torque_r	femur_lat_tibia_force_r	femur_lat_tibia_torque_r	femur_med_tibia_force_r	femur_med_tibia_torque_r
      0.48787716	      0.00164691	      0.00065949	     15.00005728	     50.43613783	     42.47365476	      0.00000000	      0.00000000	      0.00000000	     -0.34695103	     -0.46014093	      1.39514754	      0.00000000	      0.00000000	      0.03354300	      0.02704859	      0.03002140	      0.02966705	      0.05660681	      0.06009589	      0.06090615	      0.05638926	      0.05412323	      0.05140738	      0.08184018	      0.06663959	     -0.03453570	     -0.01398402	     -0.02447472	      0.00505721	      0.00293355	      0.00736116	     -0.03898125	     -0.01786925	     88.43378844	     20.43579910	     60.39762204	     14.04991354	      0.00000000	      0.00000000	      5.36497664	      0.11137158
      0.49191221	      0.00164475	      0.00065914	     15.00005728	     50.57813845	     42.66897809	      0.00000000	      0.00000000	      0.00000000	     -0.15958600	     -0.27152771	      1.62829608	      0.00000000	      0.00000000	      0.03354458	      0.02705091	      0.03002168	      0.02966686	      0.05660329	      0.06009246	      0.06090269	      0.05639339	      0.05412735	      0.05141146	      0.08189115	      0.06673107	     -0.03452668	     -0.01399037	     -0.02453534	      0.00499980	      0.00287659	      0.00743494	     -0.03890808	     -0.01779128	     87.65660899	     20.24068463	     60.17806390	     13.99615006	      0.00000000	      0.00000000	      5.70632257	      0.11855558
      0.49518713	      0.00164320	      0.00065794	     15.00005728	     50.66627003	     42.80097427	      0.00000000	      0.00000000	      0.00000000	     -0.27080992	     -0.37264389	      1.38223557	      0.00000000	      0.00000000	      0.03354662	      0.02705352	      0.03002262	      0.02966745	      0.05660139	      0.06009062	      0.06090084	      0.05639757	      0.05413154	      0.05141562	      0.08195699	      0.06683390	     -0.03449644	     -0.01397080	     -0.02456809	      0.00496915	      0.00284614	      0.00750974	     -0.03883369	     -0.01771179	     88.39691573	     20.44402176	     60.35979840	     14.05362041	      0.00000000	      0.00000000	      5.75260809	      0.11957235
      0.49815601	      0.00164197	      0.00065769	     15.00005728	     50.82025108	     43.00024964	      0.00000000	      0.00000000	      0.00000000	     -0.06346661	     -0.16935668	      1.64113524	      0.00000000	      0.00000000	      0.03354778	      0.02705517	      0.03002277	      0.02966727	      0.05659895	      0.06008824	      0.06089846	      0.05640052	      0.05413449	      0.05141854	      0.08199461	      0.06689909	     -0.03449173	     -0.01397664	     -0.02461003	      0.00492932	      0.00280689	      0.00756233	     -0.03878131	     -0.01765588	     87.60027297	     20.23907644	     59.98978735	     13.96086461	      0.00000000	      0.00000000	      6.00548373	      0.12490169
      0.50112489	      0.00164142	      0.00065628	     15.00005728	     50.86158177	     43.08498243	      0.00000000	      0.00000000	      0.00000000	     -0.24636543	     -0.34289967	      1.31009236	      0.00000000	      0.00000000	      0.03355055	      0.02705845	      0.03002325	      0.02966749	      0.05659757	      0.06008693	      0.06089715	      0.05640418	      0.05413817	      0.05142220	      0.08208384	      0.06702817	     -0.03447635	     -0.01396939	     -0.02463384	      0.00490734	      0.00278536	      0.00762770	     -0.03871591	     -0.01758611	     88.00323847	     20.36482749	     60.27684778	     14.03541469	      0.00000000	      0.00000000	      5.89781665	      0.12037436
      0.50704233	      0.00164140	      0.00065498	     15.00005728	     51.00590809	     43.29727733	      0.00000000	      0.00000000	      0.00000000	     -0.06970344	     -0.16222218	      1.44816369	      0.00000000	      0.00000000	      0.03355474	      0.02706344	      0.03002292	      0.02966669	      0.05659395	      0.06008340	      0.06089370	      0.05640981	      0.05414389	      0.05142787	      0.08221882	      0.06722520	     -0.03448696	     -0.01399597	     -0.02469621	      0.00484833	      0.00272855	      0.00772833	     -0.03861439	     -0.01747766	     87.45935565	     20.23768863	     60.28373405	     14.06397404	      0.00000000	      0.00000000	      6.11449535	      0.12491309
      0.51047326	      0.00164129	      0.00065388	     15.00005728	     51.00058001	     43.32930852	      0.00000000	      0.00000000	      0.00000000	     -0.25594351	     -0.34514284	      1.14830603	      0.00000000	      0.00000000	      0.03355703	      0.02706613	      0.03002335	      0.02966687	      0.05659249	      0.06008197	      0.06089232	      0.05641344	      0.05414757	      0.05143154	      0.08229293	      0.06733125	     -0.03447316	     -0.01399017	     -0.02472144	      0.00482451	      0.00270585	      0.00779323	     -0.03854899	     -0.01740759	     88.02561781	     20.37232136	     60.60452233	     14.13723550	      0.00000000	      0.00000000	      6.18723515	      0.12644863
      0.51313122	      0.00164117	      0.00065324	     15.00005728	     51.16518299	     43.54108640	      0.00000000	      0.00000000	      0.00000000	     -0.10022124	     -0.19648976	      1.33792430	      0.00000000	      0.00000000	      0.03355868	      0.02706810	      0.03002345	      0.02966677	      0.05659116	      0.06008068	      0.06089106	      0.05641593	      0.05415010	      0.05143405	      0.08234603	      0.06740867	     -0.03446995	     -0.01399334	     -0.02474432	      0.00480288	      0.00268504	      0.00783768	     -0.03850423	     -0.01735970	     88.45498357	     20.44850717	     60.18006381	     14.03526392	      0.00000000	      0.00000000	      6.24153488	      0.12762098
      0.51353667	      0.00164112	      0.00065308	     15.00005728	     51.16244274	     43.54468172	      0.00000000	      0.00000000	      0.00000000	     -0.13552597	     -0.23198243	      1.29161192	      0.00000000	      0.00000000	      0.03355899	      0.02706846	      0.03002350	      0.02966679	      0.05659100	      0.06008053	      0.06089091	      0.05641635	      0.05415052	      0.05143447	      0.08235608	      0.06742315	     -0.03446823	     -0.01399255	     -0.02474707	      0.00480033	      0.00268256	      0.00784522	     -0.03849667	     -0.01735163	     88.49300518	     20.45776083	     60.21000285	     14.04257463	      0.00000000	      0.00000000	      6.23333062	      0.12745486
      0.51453892	      0.00164096	      0.00065281	     15.00005728	     51.11535204	     43.51000173	      0.00000000	      0.00000000	      0.00000000	     -0.25658138	     -0.35391828	      1.15080322	      0.00000000	      0.00000000	      0.03355965	      0.02706926	      0.03002355	      0.02966677	      0.05659050	      0.06008004	      0.06089042	      0.05641729	      0.05415146	      0.05143540	      0.08237729	      0.06745457	     -0.03446648	     -0.01399329	     -0.02475576	      0.00479219	      0.00267461	      0.00786194	     -0.03847993	     -0.01733377	     88.65668171	     20.49331491	     60.36933512	     14.07666976	      0.00000000	      0.00000000	      6.24956576	      0.12779557
      0.51760594	      0.00163998	      0.00065267	     15.00005728	     51.06112886	     43.48807386	      0.00000000	      0.00000000	      0.00000000	     -0.31841358	     -0.42127525	      1.13599525	      0.00000000	      0.00000000	      0.03356073	      0.02707077	      0.03002348	      0.02966643	      0.05658831	      0.06007790	      0.06088828	      0.05641962	      0.05415380	      0.05143772	      0.08241205	      0.06751417	     -0.03446889	     -0.01400477	     -0.02479343	      0.00475645	      0.00263938	      0.00790358	     -0.03843847	     -0.01728959	     88.43240035	     20.41561143	     60.47236703	     14.08508876	      0.00000000	      0.00000000	      6.48717688	      0.13273969
      0.52140171	      0.00163793	      0.00065221	     15.00005728	     50.92034173	     43.37858459	      0.00000000	      0.00000000	      0.00000000	     -0.65495114	     -0.75505928	      0.73582521	      0.00000000	      0.00000000	      0.03356174	      0.02707234	      0.03002416	      0.02966674	      0.05658591	      0.06007556	      0.06088591	      0.05642304	      0.05415720	      0.05144108	      0.08244481	      0.06757610	     -0.03444691	     -0.01399429	     -0.02483487	      0.00471730	      0.00260023	      0.00796459	     -0.03837816	     -0.01722524	     89.01276940	     20.54470854	     61.02228649	     14.19907450	      0.00000000	      0.00000000	      6.74532408	      0.13811327
